<svg width="38" height="39" viewBox="0 0 38 39" fill="none" xmlns="http://www.w3.org/2000/svg">
<rect x="37.2666" y="39" width="37.2667" height="37.2667" rx="6.06667" transform="rotate(-180 37.2666 39)" fill="url(#paint0_linear_624_126)"/>
<rect x="37.2666" y="35.5334" width="33.8" height="33.8" rx="5.50233" transform="rotate(-180 37.2666 35.5334)" fill="url(#paint1_linear_624_126)"/>
<rect x="37.2666" y="32.0667" width="30.3333" height="30.3333" rx="4.93798" transform="rotate(-180 37.2666 32.0667)" fill="url(#paint2_linear_624_126)"/>
<rect x="37.2666" y="28.6001" width="26.8667" height="26.8667" rx="4.37364" transform="rotate(-180 37.2666 28.6001)" fill="#010029"/>
<path d="M21.208 12.8667H23.132L24.38 22.2787H24.4147L25.6627 12.8667H27.4133L25.576 25H23.0453L21.208 12.8667ZM28.3292 12.8667H31.2065C32.1887 12.8667 32.9052 13.0978 33.3558 13.56C33.8065 14.0107 34.0318 14.7098 34.0318 15.6573V16.1427C34.0318 16.7667 33.9278 17.2751 33.7198 17.668C33.5234 18.0609 33.2172 18.344 32.8012 18.5173V18.552C33.7487 18.8756 34.2225 19.7191 34.2225 21.0827V22.1227C34.2225 23.0587 33.974 23.7751 33.4772 24.272C32.9918 24.7573 32.2754 25 31.3278 25H28.3292V12.8667ZM30.9812 17.8067C31.3625 17.8067 31.6456 17.7084 31.8305 17.512C32.0269 17.3156 32.1252 16.9862 32.1252 16.524V15.848C32.1252 15.4089 32.0443 15.0911 31.8825 14.8947C31.7323 14.6982 31.4896 14.6 31.1545 14.6H30.2358V17.8067H30.9812ZM31.3278 23.2667C31.6629 23.2667 31.9114 23.18 32.0732 23.0067C32.2349 22.8218 32.3158 22.5098 32.3158 22.0707V21.0133C32.3158 20.4587 32.2176 20.0773 32.0212 19.8693C31.8363 19.6498 31.5243 19.54 31.0852 19.54H30.2358V23.2667H31.3278Z" fill="white"/>
<path d="M16.4462 7.03655L14.1702 9.09137L13.6266 8.47401L15.1378 7.07341L13.5529 5.70045L14.1426 5.04622L16.4462 7.03655Z" fill="white"/>
<path d="M16.9363 8.67711L16.9973 7.99864H20.2982L20.2372 8.67711H16.9363Z" fill="white"/>
<defs>
<linearGradient id="paint0_linear_624_126" x1="55.8999" y1="39" x2="55.8999" y2="76.2667" gradientUnits="userSpaceOnUse">
<stop stop-color="#00C2FF"/>
<stop offset="1" stop-color="#001857"/>
</linearGradient>
<linearGradient id="paint1_linear_624_126" x1="54.1666" y1="35.5334" x2="54.1666" y2="69.3334" gradientUnits="userSpaceOnUse">
<stop stop-color="#FF0000"/>
<stop offset="1" stop-color="#FF0099"/>
</linearGradient>
<linearGradient id="paint2_linear_624_126" x1="52.4333" y1="32.0667" x2="52.4333" y2="62.4" gradientUnits="userSpaceOnUse">
<stop stop-color="#00FF38"/>
<stop offset="1" stop-color="#EBFF00"/>
</linearGradient>
</defs>
</svg>
